# xmcd CD database file
#
# Track frame offsets:
#	150
#	23432
#	45896
#	61099
#	86382
#	108561
#	122227
#	137596
#	165812
#	186140
#	212044
#	230821
#	251821
#	265617
#
# Disc length: 3728 seconds
#
# Revision: 0
# Processed by: cddbd v1.5.1PL2 Copyright (c) Steve Scherf et al.
# Submitted via: CDex 1.51
#
DISCID=ae0e8e0e
DTITLE=Louie Carrington Jr. - Searching
DYEAR=2001
DGENRE=Blues
TTITLE0=The Thrill Is Gone
TTITLE1=Misty
TTITLE2=Bye Bye Blackbird
TTITLE3=Don't Go to Strangers
TTITLE4=Quiet Nights
TTITLE5=Duke Wrote
TTITLE6=Route 66
TTITLE7=Everyday I Have the Blues
TTITLE8=Angel Eyes
TTITLE9=Searching
TTITLE10=When You Were Mine
TTITLE11=Ain't No Sunshine When She's Gone
TTITLE12=All By Myself
TTITLE13=Only the Strong Survive
EXTD=YEAR: 2001
EXTT0=
EXTT1=
EXTT2=
EXTT3=
EXTT4=
EXTT5=
EXTT6=
EXTT7=
EXTT8=
EXTT9=
EXTT10=
EXTT11=
EXTT12=
EXTT13=
PLAYORDER=
